<?xml version="1.0" encoding="UTF-8"?>
<svg version="1.1" xmlns="http://www.w3.org/2000/svg" width="512" height="512">
<path d="M0 0 C7.21913454 4.60061239 11.87603619 12.14523241 16.25 19.3125 C17.29538187 20.99621238 18.34096035 22.6798027 19.38671875 24.36328125 C19.91313965 25.21615723 20.43956055 26.0690332 20.98193359 26.94775391 C23.48082212 30.98287604 26.02290715 34.99042323 28.5625 39 C29.56661449 40.58971224 30.57052054 42.17955615 31.57421875 43.76953125 C33.53361652 46.87207035 35.49463915 49.97357282 37.45703125 53.07421875 C43.66746966 62.89071818 49.83716971 72.73197412 55.98876953 82.58544922 C61.33410393 91.14373635 66.71459443 99.67931603 72.11083984 108.20556641 C74.59723533 112.13545958 77.07962775 116.06788032 79.5625 120 C80.56248164 121.58334493 81.56248162 123.16667828 82.5625 124.75 C84.5625 127.91666667 86.5625 131.08333333 88.5625 134.25 C89.0572583 135.03334717 89.5520166 135.81669434 90.06176758 136.6237793 C91.06428243 138.21113526 92.06672354 139.79853779 93.0690918 141.38598633 C95.53001963 145.28315395 97.99211712 149.17957101 100.45703125 153.07421875 C106.66746966 162.89071818 112.83716971 172.73197412 118.98876953 182.58544922 C124.33410393 191.14373635 129.71459443 199.67931603 135.11083984 208.20556641 C137.59723533 212.13545958 140.07962775 216.06788032 142.5625 220 C143.56248164 221.58334493 144.56248162 223.16667828 145.5625 224.75 C147.5625 227.91666667 149.5625 231.08333333 151.5625 234.25 C152.0572583 235.03334717 152.5520166 235.81669434 153.06176758 236.6237793 C154.06428243 238.21113526 155.06672354 239.79853779 156.0690918 241.38598633 C158.53001963 245.28315395 160.99211712 249.17957101 163.45703125 253.07421875 C169.66746966 262.89071818 175.83716971 272.73197412 181.98876953 282.58544922 C187.33410393 291.14373635 192.71459443 299.67931603 198.11083984 308.20556641 C200.59723533 312.13545958 203.07962775 316.06788032 205.5625 320 C206.56248164 321.58334493 207.56248162 323.16667828 208.5625 324.75 C210.5625 327.91666667 212.5625 331.08333333 214.5625 334.25 C215.05830566 335.03487793 215.55411133 335.81975586 216.06494141 336.62841797 C217.05734316 338.20001736 218.04921179 339.77195352 219.04052734 341.34423828 C221.65234015 345.48512687 224.27519396 349.61847901 226.9140625 353.7421875 C227.46191406 354.60134766 228.00976562 355.46050781 228.57421875 356.34570312 C229.62289235 357.98981004 230.67480142 359.6318593 231.73046875 361.27148438 C235.72705308 367.54949764 238.67331691 372.79548783 237.5625 380.5 C235.55348366 387.27725131 231.38965886 390.82140251 225.5625 394.5 C224.67046875 394.9125 223.7784375 395.325 222.859375 395.75 C220.2420502 397.3552952 220.2420502 397.3552952 219.85546875 400.63671875 C219.80326172 402.39435547 219.80326172 402.39435547 219.75 404.1875 C219.70230469 405.36699219 219.65460938 406.54648437 219.60546875 407.76171875 C219.59128906 408.66535156 219.57710938 409.56898438 219.5625 410.5 C220.79226563 410.44199219 222.02203125 410.38398438 223.2890625 410.32421875 C224.92183688 410.27729995 226.55465252 410.23180206 228.1875 410.1875 C228.99574219 410.14560547 229.80398438 410.10371094 230.63671875 410.06054688 C234.91654786 409.97355848 237.69132671 410.13197142 241.0859375 412.89453125 C245.09966968 417.11718009 244.75089997 420.46588005 244.80078125 426.05078125 C244.808853 426.90173874 244.81692474 427.75269623 244.82524109 428.62944031 C244.83908294 430.43254559 244.84980465 432.23567709 244.85766602 434.03881836 C244.87486789 436.79136067 244.91875049 439.54269838 244.96289062 442.29492188 C244.97301863 444.04686617 244.9815344 445.79882067 244.98828125 447.55078125 C245.00578934 448.37177811 245.02329742 449.19277496 245.04133606 450.03865051 C245.02653131 453.9553344 244.85658772 456.01427232 242.78588867 459.43432617 C238.45981354 463.45353356 235.28794574 463.74732912 229.40722656 463.72705078 C228.33833443 463.72748886 228.33833443 463.72748886 227.24784851 463.72793579 C224.89948219 463.72654577 222.55143569 463.71100022 220.203125 463.6953125 C218.57216566 463.6915812 216.94120408 463.68873478 215.3102417 463.68673706 C211.02270289 463.6791098 206.7353001 463.65946912 202.44781494 463.6373291 C198.07069743 463.61685112 193.69355788 463.60773117 189.31640625 463.59765625 C180.73170849 463.57622235 172.14712118 463.54209739 163.5625 463.5 C163.60337875 465.46899321 163.64428538 467.43798585 163.68532372 469.40697575 C163.71980058 471.0736595 163.75377381 472.74035374 163.78725624 474.40705776 C163.85679666 477.84374528 163.9292057 481.27966988 164.02996826 484.71560669 C164.09804597 487.05194618 164.12883151 489.38549172 164.1484375 491.72265625 C164.1944812 492.86728333 164.1944812 492.86728333 164.24145508 494.03503418 C164.24673717 499.50112407 162.79435486 502.21888231 159.04971313 506.17967224 C155.56632177 509.2721801 151.67792391 508.69764413 147.265625 508.73828125 C146.43923523 508.746353 145.61284546 508.75442474 144.76141357 508.76274109 C143.00958352 508.77658371 141.25772648 508.78730507 139.50585938 508.79516602 C136.83671304 508.81234417 134.16881669 508.85622289 131.5 508.90039062 C129.7968841 508.91052082 128.09375767 508.9190359 126.390625 508.92578125 C125.59666321 508.94328934 124.80270142 508.96079742 123.98468018 508.97883606 C118.73620384 508.9584684 115.625943 508.12043889 111.5625 504.5 C108.4259989 499.88000192 108.15454554 495.68960473 108.26953125 490.2578125 C108.27255249 489.57581787 108.27557373 488.89382324 108.27868652 488.19116211 C108.29425919 485.66895182 108.33614244 483.14695903 108.375 480.625 C108.436875 474.97375 108.49875 469.3225 108.5625 463.5 C94.3725 463.5 80.1825 463.5 65.5625 463.5 C65.68091712 474.74851129 65.68091712 474.74851129 65.83276367 485.99658203 C65.84153354 487.41698528 65.8491763 488.83739612 65.85546875 490.2578125 C65.8784906 491.34533813 65.8784906 491.34533813 65.90197754 492.45483398 C65.90442376 497.24453097 65.26352263 500.52145227 62.5625 504.5 C57.8167775 508.69108451 53.95483872 509.11571986 47.91015625 509.1015625 C47.09179794 509.11013275 46.27343964 509.118703 45.43028259 509.12753296 C43.70657029 509.13897323 41.98276148 509.14005417 40.2590332 509.13134766 C37.63519164 509.12502456 35.01586297 509.17198614 32.39257812 509.22265625 C30.71094314 509.22720302 29.02929613 509.22860886 27.34765625 509.2265625 C26.57140396 509.24498199 25.79515167 509.26340149 24.99537659 509.28237915 C19.61089411 509.19184305 16.82801686 507.71967692 12.8825531 504.07992554 C9.78511495 500.3727098 10.43428401 495.88350751 10.46484375 491.33203125 C10.46585083 490.62735718 10.46685791 489.92268311 10.46789551 489.19665527 C10.47312086 486.56858692 10.48708214 483.9405418 10.5 481.3125 C10.520625 475.434375 10.54125 469.55625 10.5625 463.5 C-3.9575 463.5 -18.4775 463.5 -33.4375 463.5 C-33.31899257 475.12264843 -33.31899257 475.12264843 -33.16723633 486.74487305 C-33.15846926 488.20881493 -33.15082584 489.67276415 -33.14453125 491.13671875 C-33.1215094 492.26430603 -33.1215094 492.26430603 -33.09802246 493.41467285 C-33.09499252 499.51797813 -34.47962981 502.42499988 -38.58813477 506.77929688 C-42.37747306 509.06764032 -45.72796678 509.07550736 -50.02734375 509.03125 C-50.84948868 509.0350769 -51.67163361 509.03890381 -52.51869202 509.04284668 C-54.25262684 509.04556124 -55.98660292 509.03823194 -57.72045898 509.02148438 C-60.36340456 509.00009385 -63.00362366 509.02128544 -65.64648438 509.046875 C-67.33594346 509.0442311 -69.02540086 509.03910485 -70.71484375 509.03125 C-71.49939438 509.03934692 -72.28394501 509.04744385 -73.0922699 509.05578613 C-78.29113883 508.96770369 -81.40878133 508.0704952 -85.4375 504.5 C-88.5740011 499.88000192 -88.84545446 495.68960473 -88.73046875 490.2578125 C-88.72744751 489.57581787 -88.72442627 488.89382324 -88.72131348 488.19116211 C-88.70574081 485.66895182 -88.66385756 483.14695903 -88.625 480.625 C-88.563125 474.97375 -88.50125 469.3225 -88.4375 463.5 C-102.6275 463.5 -116.8175 463.5 -131.4375 463.5 C-131.27971418 474.70364227 -131.27971418 474.70364227 -131.07714844 485.90649414 C-131.06545202 487.32436918 -131.05526245 488.74225778 -131.046875 490.16015625 C-131.02641113 490.88005737 -131.00594727 491.5999585 -130.98486328 492.3416748 C-130.98112408 497.83175619 -132.20390492 501.02534202 -135.4375 505.5 C-139.52827577 509.01958193 -143.81205611 508.98183211 -148.9921875 509.00390625 C-149.81196075 509.01389145 -150.63173401 509.02387665 -151.47634888 509.03416443 C-153.2060239 509.0493114 -154.93578607 509.05639128 -156.66552734 509.0559082 C-159.29803423 509.06246398 -161.92675464 509.11695677 -164.55859375 509.17382812 C-166.24477886 509.18263277 -167.93098176 509.18858526 -169.6171875 509.19140625 C-170.39657684 509.2129628 -171.17596619 509.23451935 -171.97897339 509.25672913 C-177.42259704 509.18920783 -180.17159386 507.71105846 -184.11868286 503.98350525 C-187.22832722 500.48554212 -186.56371906 496.63268268 -186.53515625 492.2109375 C-186.5337413 491.39251373 -186.53232635 490.57408997 -186.53086853 489.73086548 C-186.5252629 487.11220675 -186.51270948 484.49363296 -186.5 481.875 C-186.49498572 480.10156373 -186.49042269 478.32812613 -186.48632812 476.5546875 C-186.47529164 472.20309218 -186.45802325 467.8515605 -186.4375 463.5 C-187.33872589 463.50888245 -188.23995178 463.51776489 -189.16848755 463.5269165 C-197.67249735 463.60715123 -206.17637955 463.66800955 -214.68068123 463.70724869 C-219.05258491 463.72810038 -223.42417514 463.75637342 -227.79589844 463.80175781 C-232.01694687 463.84530247 -236.23769429 463.8691553 -240.45895004 463.87950897 C-242.06728731 463.88688494 -243.67560859 463.90128867 -245.28381729 463.92292023 C-247.54129547 463.95207012 -249.79753889 463.95595137 -252.05517578 463.95410156 C-253.33868927 463.96298401 -254.62220276 463.97186646 -255.9446106 463.98101807 C-260.08735896 463.41050564 -262.21083307 462.11553701 -265.4375 459.5 C-268.01324851 455.63637723 -267.77921238 452.37263305 -267.80859375 447.88671875 C-267.81762222 447.03954788 -267.8266507 446.19237701 -267.83595276 445.3195343 C-267.85045891 443.52661676 -267.85934291 441.73364624 -267.86303711 439.94067383 C-267.87491275 437.2075789 -267.92407383 434.47675758 -267.97460938 431.74414062 C-267.98407642 430.00001099 -267.99131011 428.25586752 -267.99609375 426.51171875 C-268.01562607 425.69902023 -268.03515839 424.88632172 -268.05528259 424.04899597 C-268.02250926 419.89324477 -267.6880888 417.28786681 -265.02758789 413.99926758 C-261.84512575 410.9283971 -260.5661306 410.37233359 -256.3046875 410.40234375 C-255.49902344 410.40556641 -254.69335938 410.40878906 -253.86328125 410.41210938 C-253.02152344 410.42048828 -252.17976562 410.42886719 -251.3125 410.4375 C-250.03826172 410.44426758 -250.03826172 410.44426758 -248.73828125 410.45117188 C-246.63799091 410.46297126 -244.5377367 410.48090694 -242.4375 410.5 C-242.14418426 405.96383791 -242.20390988 401.8946648 -243.4375 397.5 C-246.02147615 395.05627255 -248.49229806 393.62661457 -251.67578125 392.0625 C-256.28670955 389.45377112 -259.02305339 385.56843369 -260.4375 380.5 C-261.76235312 369.33338089 -254.25554606 360.38762769 -248.3125 351.5 C-243.71773331 344.54511041 -239.18242836 337.57434146 -234.875 330.4375 C-229.12367818 320.91936895 -223.13669168 311.55674874 -217.14990234 302.18554688 C-214.52504742 298.06900794 -211.91749925 293.94162334 -209.3125 289.8125 C-208.82531494 289.04043213 -208.33812988 288.26836426 -207.83618164 287.47290039 C-206.85910334 285.92422235 -205.88213343 284.37547591 -204.90527344 282.82666016 C-201.91879241 278.0926009 -198.92901882 273.36061956 -195.93920898 268.62866211 C-193.42405755 264.64746642 -190.91106735 260.66493727 -188.40234375 256.6796875 C-185.91780628 252.73408055 -183.42661377 248.79275871 -180.9296875 244.85498047 C-179.91495589 243.25352413 -178.9019999 241.65094161 -177.890625 240.04736328 C-176.39159223 237.67342154 -174.88438236 235.30487102 -173.375 232.9375 C-172.92181396 232.21675293 -172.46862793 231.49600586 -172.00170898 230.75341797 C-170.00341978 227.63637493 -168.55659229 225.57939486 -165.4375 223.5 C-162.5625 223.0625 -162.5625 223.0625 -159.4375 223.5 C-156.32623863 225.79962797 -154.66469669 227.23037142 -153.97265625 231.09765625 C-154.65467314 236.08956142 -157.08648749 239.60053732 -159.75 243.8125 C-160.56597656 245.13592407 -160.56597656 245.13592407 -161.3984375 246.48608398 C-165.72403008 253.46687283 -170.17422388 260.36874227 -174.66796875 267.2421875 C-177.57496652 271.69497798 -180.41681552 276.18748971 -183.25 280.6875 C-187.62724275 287.63694431 -192.0242913 294.57333623 -196.4375 301.5 C-202.30398142 310.71038386 -208.14423066 319.9369908 -213.96972656 329.17333984 C-216.95111244 333.89932244 -219.93585866 338.62318409 -222.92041016 343.34716797 C-225.52215821 347.46567614 -228.12192554 351.58541654 -230.71875 355.70703125 C-231.25757813 356.56167969 -231.79640625 357.41632813 -232.3515625 358.296875 C-233.37823217 359.92538551 -234.40431261 361.55426769 -235.4296875 363.18359375 C-237.49919323 366.46507522 -239.57993513 369.72316572 -241.78125 372.91796875 C-243.61747355 375.26930858 -243.61747355 375.26930858 -243.4375 377.5 C-241.48525792 378.78406399 -239.47409238 379.97941678 -237.4375 381.125 C-236.32375 381.75664062 -235.21 382.38828125 -234.0625 383.0390625 C-233.19625 383.52117187 -232.33 384.00328125 -231.4375 384.5 C-230.98648926 383.78589966 -230.98648926 383.78589966 -230.52636719 383.05737305 C-180.83007812 304.37158203 -131.13378906 225.68579102 -48.4375 94.75 C-47.9422583 93.96584717 -47.4470166 93.18169434 -46.93676758 92.3737793 C-45.9392825 90.79446854 -44.94172421 89.21520402 -43.9440918 87.63598633 C-40.88800934 82.79806256 -37.83480838 77.95833451 -34.78344727 73.11743164 C-33.28023181 70.73540593 -31.77324838 68.35580012 -30.265625 65.9765625 C-28.4473625 63.10607617 -26.64591763 60.22625879 -24.859375 57.3359375 C-24.07302282 56.07805863 -23.28657089 54.82024211 -22.5 53.5625 C-21.83097656 52.48097656 -21.16195312 51.39945313 -20.47265625 50.28515625 C-18.36147236 47.3959545 -16.42285597 45.46504443 -13.4375 43.5 C-9.875 43.4375 -9.875 43.4375 -6.4375 44.5 C-3.63958494 47.62863948 -1.39207892 51.00726884 0.8125 54.5703125 C1.71585083 56.02401245 1.71585083 56.02401245 2.63745117 57.50708008 C3.27271729 58.53599365 3.9079834 59.56490723 4.5625 60.625 C5.91238742 62.79840879 7.26265223 64.97158323 8.61328125 67.14453125 C9.28182129 68.2217041 9.95036133 69.29887695 10.63916016 70.40869141 C13.32309128 74.72246849 16.0329198 79.01954965 18.75 83.3125 C19.23275391 84.07578613 19.71550781 84.83907227 20.21289062 85.62548828 C21.17869148 87.15229627 22.14467295 88.67899002 23.11083984 90.20556641 C25.59723533 94.13545958 28.07962775 98.06788032 30.5625 102 C31.56248164 103.58334493 32.56248162 105.16667828 33.5625 106.75 C35.5625 109.91666667 37.5625 113.08333333 39.5625 116.25 C40.30463745 117.42502075 40.30463745 117.42502075 41.06176758 118.6237793 C42.06428243 120.21113526 43.06672354 121.79853779 44.0690918 123.38598633 C46.53001963 127.28315395 48.99211712 131.17957101 51.45703125 135.07421875 C57.66746966 144.89071818 63.83716971 154.73197412 69.98876953 164.58544922 C75.33410393 173.14373635 80.71459443 181.67931603 86.11083984 190.20556641 C88.59723533 194.13545958 91.07962775 198.06788032 93.5625 202 C94.56248164 203.58334493 95.56248162 205.16667828 96.5625 206.75 C98.5625 209.91666667 100.5625 213.08333333 102.5625 216.25 C103.0572583 217.03334717 103.5520166 217.81669434 104.06176758 218.6237793 C105.06428243 220.21113526 106.06672354 221.79853779 107.0690918 223.38598633 C109.53001963 227.28315395 111.99211712 231.17957101 114.45703125 235.07421875 C120.66746966 244.89071818 126.83716971 254.73197412 132.98876953 264.58544922 C138.33410393 273.14373635 143.71459443 281.67931603 149.11083984 290.20556641 C151.59723533 294.13545958 154.07962775 298.06788032 156.5625 302 C157.56248164 303.58334493 158.56248162 305.16667828 159.5625 306.75 C161.5625 309.91666667 163.5625 313.08333333 165.5625 316.25 C166.0572583 317.03334717 166.5520166 317.81669434 167.06176758 318.6237793 C168.06428243 320.21113526 169.06672354 321.79853779 170.0690918 323.38598633 C172.53001963 327.28315395 174.99211712 331.17957101 177.45703125 335.07421875 C181.80271013 341.9435715 186.14059291 348.81727305 190.44140625 355.71484375 C191.10487061 356.77872314 191.76833496 357.84260254 192.4519043 358.9387207 C193.73983123 361.00545309 195.02652757 363.07295305 196.31176758 365.14135742 C199.60054672 370.41985907 202.95318553 375.62665632 206.50048828 380.73583984 C207.5625 382.5 207.5625 382.5 207.5625 384.5 C209.16790659 383.71085079 210.77178016 382.91858235 212.375 382.125 C213.71498047 381.46371094 213.71498047 381.46371094 215.08203125 380.7890625 C217.70806381 379.48133095 217.70806381 379.48133095 220.5625 377.5 C219.26462451 374.01306685 217.74199987 370.99140789 215.7265625 367.8671875 C214.88134033 366.54908081 214.88134033 366.54908081 214.01904297 365.2043457 C213.41463379 364.27066162 212.81022461 363.33697754 212.1875 362.375 C210.9111478 360.38691808 209.63511143 358.39863336 208.359375 356.41015625 C207.71935547 355.41516113 207.07933594 354.42016602 206.41992188 353.39501953 C203.7376319 349.21434202 201.08551169 345.01494272 198.4375 340.8125 C197.45187668 339.24996608 196.46619976 337.68746598 195.48046875 336.125 C194.99755371 335.35929687 194.51463867 334.59359375 194.01708984 333.8046875 C192.57168211 331.51454836 191.12409316 329.22580343 189.67578125 326.9375 C183.46230108 317.1173685 177.29031647 307.27200819 171.13623047 297.41455078 C165.79089607 288.85626365 160.41040557 280.32068397 155.01416016 271.79443359 C152.52776467 267.86454042 150.04537225 263.93211968 147.5625 260 C146.56251836 258.41665507 145.56251838 256.83332172 144.5625 255.25 C142.5625 252.08333333 140.5625 248.91666667 138.5625 245.75 C138.0677417 244.96665283 137.5729834 244.18330566 137.06323242 243.3762207 C136.06071757 241.78886474 135.05827646 240.20146221 134.0559082 238.61401367 C131.59498037 234.71684605 129.13288288 230.82042899 126.66796875 226.92578125 C120.45753034 217.10928182 114.28783029 207.26802588 108.13623047 197.41455078 C102.79089607 188.85626365 97.41040557 180.32068397 92.01416016 171.79443359 C89.52776467 167.86454042 87.04537225 163.93211968 84.5625 160 C83.56251836 158.41665507 82.56251838 156.83332172 81.5625 155.25 C79.5625 152.08333333 77.5625 148.91666667 75.5625 145.75 C75.0677417 144.96665283 74.5729834 144.18330566 74.06323242 143.3762207 C73.06071757 141.78886474 72.05827646 140.20146221 71.0559082 138.61401367 C68.59498037 134.71684605 66.13288288 130.82042899 63.66796875 126.92578125 C57.45753034 117.10928182 51.28783029 107.26802588 45.13623047 97.41455078 C39.79089607 88.85626365 34.41040557 80.32068397 29.01416016 71.79443359 C26.52776463 67.86454037 24.04541751 63.93209115 21.5625 60 C21.06943359 59.21947266 20.57636719 58.43894531 20.06835938 57.63476562 C17.52947722 53.61569858 14.99203869 49.59573103 12.45703125 45.57421875 C9.49711928 40.87968456 6.53244696 36.18819214 3.5625 31.5 C3.11148926 30.78779297 2.66047852 30.07558594 2.19580078 29.34179688 C0.94617371 27.37167663 -0.30732419 25.40408848 -1.5625 23.4375 C-2.26632812 22.33277344 -2.97015625 21.22804688 -3.6953125 20.08984375 C-5.33277101 17.4767089 -5.33277101 17.4767089 -7.4375 15.5 C-10.85321853 14.99968794 -10.85321853 14.99968794 -14.4375 15.5 C-17.52320523 18.11175461 -19.580553 21.04663002 -21.6875 24.47265625 C-22.28973389 25.44501221 -22.89196777 26.41736816 -23.51245117 27.41918945 C-24.14771729 28.45648193 -24.7829834 29.49377441 -25.4375 30.5625 C-26.7873629 32.74503757 -28.13762799 34.92732645 -29.48828125 37.109375 C-30.15682129 38.19283203 -30.82536133 39.27628906 -31.51416016 40.39257812 C-34.1905081 44.71658888 -36.90356745 49.01677155 -39.625 53.3125 C-40.59767795 54.85024669 -41.57033431 56.38800704 -42.54296875 57.92578125 C-43.01911621 58.67811035 -43.49526367 59.43043945 -43.98583984 60.20556641 C-46.47223533 64.13545958 -48.95462775 68.06788032 -51.4375 72 C-52.43748164 73.58334493 -53.43748162 75.16667828 -54.4375 76.75 C-55.18 77.925625 -55.18 77.925625 -55.9375 79.125 C-73.4375 106.83333333 -90.9375 134.54166667 -108.4375 162.25 C-108.93282227 163.03431396 -109.42814453 163.81862793 -109.93847656 164.62670898 C-110.93502527 166.20446957 -111.93176897 167.78210701 -112.92871094 169.35961914 C-115.48315713 173.40220984 -118.03381724 177.44711328 -120.578125 181.49609375 C-123.51823606 186.17237527 -126.47102663 190.84039796 -129.4375 195.5 C-130.04948242 196.46317139 -130.04948242 196.46317139 -130.67382812 197.44580078 C-131.75295578 199.13616022 -132.84476625 200.81840418 -133.9375 202.5 C-134.5253125 203.4075 -135.113125 204.315 -135.71875 205.25 C-138.29233442 208.61905596 -140.20688753 210.32053568 -144.4375 210.9375 C-147.4375 210.5 -147.4375 210.5 -149.75 208.875 C-151.82015951 205.96144217 -152.17427021 204.05360215 -152.4375 200.5 C-151.49609375 198.0625 -151.49609375 198.0625 -149.875 195.5 C-149.22789062 194.45972656 -148.58078125 193.41945312 -147.9140625 192.34765625 C-147.08889779 191.06487501 -146.26333639 189.78234892 -145.4375 188.5 C-144.38172541 186.83271913 -143.32712584 185.16469387 -142.2734375 183.49609375 C-139.87843659 179.71232377 -137.47258462 175.93574421 -135.05859375 172.1640625 C-131.79128915 167.0585206 -128.54600749 161.93949804 -125.3125 156.8125 C-124.82563721 156.04091553 -124.33877441 155.26933105 -123.8371582 154.47436523 C-122.85974196 152.92520675 -121.88244639 151.37597212 -120.90527344 149.82666016 C-118.41766643 145.88339755 -115.92743586 141.94179232 -113.4375 138 C-112.43748776 136.4166744 -111.43748775 134.83334107 -110.4375 133.25 C-92.4375 104.75 -74.4375 76.25 -56.4375 47.75 C-55.94209717 46.9655249 -55.44669434 46.1810498 -54.9362793 45.37280273 C-53.94066699 43.79659228 -52.94473826 42.22058165 -51.94848633 40.64477539 C-49.37866423 36.57908041 -46.81517591 32.5095898 -44.26171875 28.43359375 C-41.34130172 23.77555342 -38.39882322 19.13213059 -35.4375 14.5 C-34.756875 13.43136719 -34.07625 12.36273438 -33.375 11.26171875 C-25.86730864 -0.050093 -13.44705005 -6.00881961 0 0 Z M-20.4375 80.5 C-22.04114485 83.02223752 -23.59224349 85.55989712 -25.125 88.125 C-29.45192986 95.28812919 -33.87000666 102.38501422 -38.375 109.4375 C-38.95950928 110.35337891 -39.54401855 111.26925781 -40.14624023 112.21289062 C-41.32427953 114.0582745 -42.50258219 115.90349027 -43.68115234 117.74853516 C-46.52426705 122.20251107 -49.35880635 126.66185383 -52.1875 131.125 C-52.68886475 131.91253662 -53.19022949 132.70007324 -53.70678711 133.51147461 C-54.16964111 134.24245361 -54.63249512 134.97343262 -55.109375 135.7265625 C-55.71410645 136.67909912 -55.71410645 136.67909912 -56.33105469 137.65087891 C-57.47179906 139.55732151 -58.46933713 141.50115861 -59.4375 143.5 C-58.27437329 144.69096751 -57.10673328 145.87752704 -55.9375 147.0625 C-55.2878125 147.72378906 -54.638125 148.38507813 -53.96875 149.06640625 C-51.98861918 150.97014313 -49.98883652 152.75065029 -47.90234375 154.53125 C-42.1438094 159.53116296 -36.85372489 165.01349649 -31.5 170.4375 C-29.43122962 172.53278903 -27.35920002 174.62477613 -25.28515625 176.71484375 C-24.37773682 177.63386475 -23.47031738 178.55288574 -22.53540039 179.49975586 C-20.79998286 181.61501016 -20.79998286 181.61501016 -19.4375 181.5 C-19.4375 148.17 -19.4375 114.84 -19.4375 80.5 C-19.7675 80.5 -20.0975 80.5 -20.4375 80.5 Z M-3.4375 80.5 C-3.4375 113.83 -3.4375 147.16 -3.4375 181.5 C0.03762356 179.76243822 1.68498291 178.62313341 4.32128906 175.96826172 C5.04173401 175.24766571 5.76217896 174.5270697 6.50445557 173.78463745 C7.27126648 173.00750397 8.03807739 172.23037048 8.828125 171.4296875 C9.62152283 170.63345978 10.41492065 169.83723206 11.23236084 169.01687622 C13.76380703 166.47424052 16.28820803 163.92473652 18.8125 161.375 C20.52818617 159.64928247 22.24432662 157.92401645 23.9609375 156.19921875 C28.16674248 151.97136968 32.36678507 147.73786131 36.5625 143.5 C34.39962476 139.06176798 32.21003622 134.72960205 29.53125 130.57421875 C28.97397217 129.70474609 28.41669434 128.83527344 27.8425293 127.93945312 C27.25511963 127.03130859 26.66770996 126.12316406 26.0625 125.1875 C24.80826139 123.23328619 23.55436118 121.27885515 22.30078125 119.32421875 C21.67381348 118.34888184 21.0468457 117.37354492 20.40087891 116.36865234 C17.66110163 112.09343547 14.9553644 107.79704028 12.25 103.5 C10.81299413 101.22392743 9.37499157 98.9484885 7.93652344 96.67333984 C7.01991961 95.22351624 6.10390459 93.77332021 5.18847656 92.32275391 C3.92102274 90.31695499 2.64882274 88.31425834 1.375 86.3125 C1.00012451 85.71759766 0.62524902 85.12269531 0.23901367 84.50976562 C-0.62619228 83.15556583 -1.52773214 81.82467387 -2.4375 80.5 C-2.7675 80.5 -3.0975 80.5 -3.4375 80.5 Z M-68.4375 157.5 C-74.77333125 167.18763249 -81.09928967 176.88090016 -87.25 186.6875 C-87.67587402 187.36361328 -88.10174805 188.03972656 -88.54052734 188.73632812 C-90.54862018 191.42995186 -90.54862018 191.42995186 -91.4375 194.5 C-71.3075 194.5 -51.1775 194.5 -30.4375 194.5 C-33.96779021 190.38132809 -37.31798526 186.4923739 -41.1171875 182.6875 C-41.96410156 181.83929688 -42.81101563 180.99109375 -43.68359375 180.1171875 C-44.55113281 179.25351563 -45.41867188 178.38984375 -46.3125 177.5 C-47.17230469 176.63632813 -48.03210938 175.77265625 -48.91796875 174.8828125 C-55.11563265 168.69455325 -61.38121657 162.70529579 -68.4375 157.5 Z M42.95529175 158.85997009 C42.00264938 159.81474998 42.00264938 159.81474998 41.03076172 160.78881836 C39.94986771 161.86509743 39.94986771 161.86509743 38.84713745 162.96311951 C38.07000397 163.74743851 37.29287048 164.53175751 36.4921875 165.33984375 C35.69595978 166.13652969 34.89973206 166.93321564 34.07937622 167.75404358 C32.39413588 169.44231035 30.71133199 171.13301212 29.03076172 172.82592773 C26.44680093 175.4281334 23.85493942 178.02225988 21.26171875 180.61523438 C19.62973552 182.25213291 17.99820944 183.88948737 16.3671875 185.52734375 C15.58600555 186.30963852 14.80482361 187.09193329 13.99996948 187.89793396 C13.2856778 188.6186055 12.57138611 189.33927704 11.83544922 190.08178711 C11.2019455 190.71910263 10.56844177 191.35641815 9.91574097 192.01304626 C8.4503214 193.288172 8.4503214 193.288172 8.5625 194.5 C28.3625 194.5 48.1625 194.5 68.5625 194.5 C67.04430685 190.70451713 65.68795302 187.9104707 63.515625 184.55078125 C62.9175 183.61943359 62.319375 182.68808594 61.703125 181.72851562 C61.07921875 180.76623047 60.4553125 179.80394531 59.8125 178.8125 C58.58723685 176.91360171 57.3632696 175.0138666 56.140625 173.11328125 C55.54314453 172.18725098 54.94566406 171.2612207 54.33007812 170.30712891 C52.05472004 166.6935837 49.92108603 163.00440167 47.81542969 159.28979492 C47.40196289 158.6991626 46.98849609 158.10853027 46.5625 157.5 C44.46606303 157.28468365 44.46606303 157.28468365 42.95529175 158.85997009 Z M-115.00068665 228.37785339 C-115.39515299 229.40742346 -115.78961933 230.43699352 -116.1960392 231.49776268 C-118.11443214 236.13703191 -120.8337161 240.16148495 -123.625 244.3125 C-124.60187139 245.84758618 -125.5750718 247.3850208 -126.54296875 248.92578125 C-127.01911621 249.67811035 -127.49526367 250.43043945 -127.98583984 251.20556641 C-130.47223533 255.13545958 -132.95462775 259.06788032 -135.4375 263 C-136.43748164 264.58334493 -137.43748162 266.16667828 -138.4375 267.75 C-138.9325 268.53375 -139.4275 269.3175 -139.9375 270.125 C-157.4375 297.83333333 -174.9375 325.54166667 -192.4375 353.25 C-192.93290283 354.0344751 -193.42830566 354.8189502 -193.9387207 355.62719727 C-194.93433301 357.20340772 -195.93026174 358.77941835 -196.92651367 360.35522461 C-199.49633577 364.42091959 -202.05982409 368.4904102 -204.61328125 372.56640625 C-219.14989818 395.75084985 -219.14989818 395.75084985 -223.875 398.5 C-225.1434375 399.49 -225.1434375 399.49 -226.4375 400.5 C-226.4375 403.8 -226.4375 407.1 -226.4375 410.5 C-172.3175 410.5 -118.1975 410.5 -62.4375 410.5 C-62.22740565 360.13372506 -62.22740565 360.13372506 -62.04956055 309.76733398 C-61.99963379 300.02355957 -61.99963379 300.02355957 -61.9724884 295.46131897 C-61.95455981 292.27661159 -61.94494742 289.09199589 -61.94038391 285.90724182 C-61.93428515 281.84177371 -61.9139227 277.77660934 -61.88333857 273.71125424 C-61.87453794 272.22121334 -61.87070035 270.73113266 -61.87246072 269.24106681 C-61.88433713 254.81711294 -61.88433713 254.81711294 -58.4375 249.5 C-54.45987664 246.00457028 -50.32277333 246.06584783 -45.25415039 246.09594727 C-44.44375809 246.08908401 -43.63336578 246.08222076 -42.79841614 246.07514954 C-40.12714984 246.05689084 -37.45647139 246.06071768 -34.78515625 246.06640625 C-32.92337351 246.06184394 -31.06159245 246.05653822 -29.19981384 246.05052185 C-25.30021315 246.04159254 -21.40081726 246.04401177 -17.5012207 246.05395508 C-12.50986276 246.06544349 -7.51921242 246.04523439 -2.52794743 246.01603794 C1.31629408 245.99767029 5.1603662 245.99796954 9.00464058 246.00367546 C10.84459997 246.00382861 12.68457088 245.99778939 14.52448845 245.98538399 C17.1000259 245.97046524 19.67425856 245.98115691 22.24975586 245.99829102 C23.00579102 245.98862305 23.76182617 245.97895508 24.54077148 245.96899414 C29.67599127 246.0403415 32.73583705 247.0578612 36.5625 250.5 C38.35415562 254.77953441 38.81838841 258.45319744 38.8409729 263.06796265 C38.85771812 265.02400421 38.85771812 265.02400421 38.87480164 267.01956177 C38.87716623 268.45233125 38.87934195 269.88510106 38.88134766 271.31787109 C38.890652 272.83598359 38.90082143 274.35409099 38.91178894 275.87219238 C38.93904596 279.98326544 38.95422558 284.0943043 38.96721697 288.20544386 C38.98286633 292.5056242 39.0096508 296.80573492 39.0352478 301.10586548 C39.08200363 309.24422872 39.1187632 317.38260511 39.15192068 325.52103388 C39.19016465 334.78827071 39.23956886 344.05543757 39.28990483 353.32261539 C39.39317714 372.38169235 39.48245283 391.44081205 39.5625 410.5 C40.83037102 410.50546844 40.83037102 410.50546844 42.12385559 410.51104736 C50.08459095 410.54889401 58.04491523 410.60570833 66.0053606 410.68390274 C70.09807262 410.72343387 74.19056767 410.75559437 78.28344727 410.77099609 C82.23241588 410.78612605 86.18078825 410.820505 90.12949181 410.86830902 C91.63693755 410.88316092 93.14446841 410.8910432 94.65198708 410.89188385 C96.76188553 410.89424406 98.87012337 410.92124165 100.97973633 410.95410156 C102.18108719 410.96298401 103.38243805 410.97186646 104.62019348 410.98101807 C107.5625 411.5 107.5625 411.5 109.46928406 413.38665771 C110.81842354 415.99473668 110.71485311 417.37636262 110.25 420.25 C110.07017578 421.44882812 110.07017578 421.44882812 109.88671875 422.671875 C109.77972656 423.27515625 109.67273438 423.8784375 109.5625 424.5 C105.77211604 425.38133812 102.25975774 425.62911933 98.37185955 425.6386652 C97.11833209 425.64413964 95.86480462 425.64961409 94.57329148 425.65525442 C93.18490333 425.65633056 91.79651511 425.65731526 90.40812683 425.65821838 C88.93125646 425.66278525 87.45438738 425.66778545 85.97751981 425.67318195 C81.91845752 425.6867583 77.85940361 425.69417997 73.80032456 425.70060861 C69.42340179 425.70861475 65.04649642 425.7223118 60.66958618 425.73532104 C53.08603142 425.75708074 45.50247489 425.7752271 37.91890526 425.79092598 C26.95430829 425.8136292 15.98973059 425.84177142 5.02514998 425.87124526 C-12.76374241 425.9189156 -30.55264269 425.96218131 -48.34155273 426.00268555 C-65.62280897 426.0420433 -82.90405821 426.08347021 -100.18530273 426.12768555 C-101.25034654 426.13040982 -102.31539034 426.13313409 -103.4127082 426.13594092 C-108.75566855 426.14962044 -114.0986288 426.16334071 -119.441589 426.17708123 C-163.77354475 426.29103725 -208.10551576 426.39777531 -252.4375 426.5 C-252.4375 433.43 -252.4375 440.36 -252.4375 447.5 C-93.3775 447.5 65.6825 447.5 229.5625 447.5 C229.5625 440.57 229.5625 433.64 229.5625 426.5 C226.65026611 426.47494385 223.73803223 426.4498877 220.73754883 426.42407227 C211.11828183 426.34061637 201.49906822 426.25192807 191.87987232 426.16066074 C186.04745673 426.10548348 180.21503609 426.05207173 174.38256836 426.00268555 C168.75451505 425.95496543 163.12652206 425.90261978 157.49854088 425.84705925 C155.35076079 425.82667037 153.20296418 425.8079516 151.0551548 425.79092598 C148.04818373 425.76680527 145.04132605 425.7367611 142.03442383 425.70532227 C141.14537857 425.6995668 140.25633331 425.69381134 139.34034729 425.68788147 C135.28980065 425.6397067 131.51421017 425.50898292 127.5625 424.5 C126.3779869 420.94646071 126.29608106 418.22986522 126.5625 414.5 C127.63227844 412.80827332 127.63227844 412.80827332 129.5625 411.5 C132.73258972 411.10127258 132.73258972 411.10127258 136.69604492 411.06762695 C137.41824722 411.0574353 138.14044952 411.04724365 138.88453674 411.03674316 C141.27075909 411.00655805 143.65658039 410.99733913 146.04296875 410.98828125 C147.69779297 410.97143859 149.35260436 410.95328891 151.00740051 410.93388367 C155.36225375 410.88633241 159.71705499 410.85655636 164.07208252 410.83044434 C168.51625845 410.80066456 172.96025513 410.75412541 177.40429688 410.70898438 C186.12360996 410.62289299 194.84293927 410.55557385 203.5625 410.5 C203.6584774 408.89545569 203.72716353 407.28926204 203.78417969 405.68286133 C203.82532898 404.78867996 203.86647827 403.8944986 203.90887451 402.97322083 C203.79756733 400.40796769 203.79756733 400.40796769 201.91400146 398.80049133 C200.54664517 397.91723579 199.17278706 397.04401661 197.79492188 396.17724609 C193.42875421 392.89689047 191.0479794 387.95171777 188.3125 383.3125 C186.99920681 381.14812863 185.68539865 378.98406966 184.37109375 376.8203125 C183.72769043 375.74942383 183.08428711 374.67853516 182.42138672 373.57519531 C179.80072267 369.23977577 177.09392595 364.9617131 174.375 360.6875 C173.40200509 359.14995384 172.42934676 357.61219464 171.45703125 356.07421875 C170.74281006 354.9457251 170.74281006 354.9457251 170.01416016 353.79443359 C167.52776467 349.86454042 165.04537225 345.93211968 162.5625 342 C161.56251836 340.41665507 160.56251838 338.83332172 159.5625 337.25 C156.5625 332.5 156.5625 332.5 153.5625 327.75 C152.82036255 326.57497925 152.82036255 326.57497925 152.06323242 325.3762207 C151.06071757 323.78886474 150.05827646 322.20146221 149.0559082 320.61401367 C146.59498037 316.71684605 144.13288288 312.82042899 141.66796875 308.92578125 C135.45753034 299.10928182 129.28783029 289.26802588 123.13623047 279.41455078 C117.79089607 270.85626365 112.41040557 262.32068397 107.01416016 253.79443359 C104.52776464 249.86454038 102.04540193 245.93210098 99.5625 242 C98.57552685 240.4374962 97.58854767 238.87499621 96.6015625 237.3125 C94.47032136 233.93815087 92.34032092 230.56302173 90.2109375 227.1875 C89.66308594 226.31931641 89.11523438 225.45113281 88.55078125 224.55664062 C87.49838914 222.88886668 86.44629189 221.22090662 85.39453125 219.55273438 C84.92144531 218.80314453 84.44835937 218.05355469 83.9609375 217.28125 C83.33711182 216.2922168 83.33711182 216.2922168 82.70068359 215.28320312 C81.6747109 213.67580189 80.62027105 212.08665658 79.5625 210.5 C77.13506195 210.15245784 74.95039415 210.00461118 72.51350403 209.97773743 C71.77917214 209.95824057 71.04484024 209.93874372 70.28825587 209.91865605 C67.81442098 209.8572614 65.34073456 209.8177556 62.86645508 209.77856445 C61.09739617 209.74013769 59.3283583 209.70073143 57.55934143 209.66041565 C41.3710634 209.311948 25.17719082 209.14262003 8.98585987 209.01011372 C-2.97752216 208.91055946 -14.93405081 208.73233088 -26.89449233 208.44758064 C-35.31073868 208.25402503 -43.72512953 208.1534223 -52.14351541 208.11986512 C-57.16825447 208.09724981 -62.18473178 208.03444425 -67.20702171 207.87078285 C-97.15873787 206.43278386 -97.15873787 206.43278386 -115.00068665 228.37785339 Z M-46.4375 261.5 C-46.4375 267.44 -46.4375 273.38 -46.4375 279.5 C-23.3375 279.5 -0.2375 279.5 23.5625 279.5 C23.5625 273.56 23.5625 267.62 23.5625 261.5 C0.4625 261.5 -22.6375 261.5 -46.4375 261.5 Z M-46.4375 295.5 C-46.4375 304.08 -46.4375 312.66 -46.4375 321.5 C-23.3375 321.5 -0.2375 321.5 23.5625 321.5 C23.5625 312.92 23.5625 304.34 23.5625 295.5 C0.4625 295.5 -22.6375 295.5 -46.4375 295.5 Z M-46.4375 337.5 C-46.4375 346.41 -46.4375 355.32 -46.4375 364.5 C-23.3375 364.5 -0.2375 364.5 23.5625 364.5 C23.5625 355.59 23.5625 346.68 23.5625 337.5 C0.4625 337.5 -22.6375 337.5 -46.4375 337.5 Z M-46.4375 379.5 C-46.4375 389.73 -46.4375 399.96 -46.4375 410.5 C-23.3375 410.5 -0.2375 410.5 23.5625 410.5 C23.5625 400.27 23.5625 390.04 23.5625 379.5 C0.4625 379.5 -22.6375 379.5 -46.4375 379.5 Z M-170.4375 463.5 C-170.4375 473.4 -170.4375 483.3 -170.4375 493.5 C-162.8475 493.5 -155.2575 493.5 -147.4375 493.5 C-147.4375 483.6 -147.4375 473.7 -147.4375 463.5 C-155.0275 463.5 -162.6175 463.5 -170.4375 463.5 Z M-72.4375 463.5 C-72.4375 473.4 -72.4375 483.3 -72.4375 493.5 C-64.8475 493.5 -57.2575 493.5 -49.4375 493.5 C-49.4375 483.6 -49.4375 473.7 -49.4375 463.5 C-57.0275 463.5 -64.6175 463.5 -72.4375 463.5 Z M26.5625 463.5 C26.5625 473.4 26.5625 483.3 26.5625 493.5 C34.1525 493.5 41.7425 493.5 49.5625 493.5 C49.5625 483.6 49.5625 473.7 49.5625 463.5 C41.9725 463.5 34.3825 463.5 26.5625 463.5 Z M124.5625 463.5 C124.5625 473.4 124.5625 483.3 124.5625 493.5 C132.1525 493.5 139.7425 493.5 147.5625 493.5 C147.5625 483.6 147.5625 473.7 147.5625 463.5 C139.9725 463.5 132.3825 463.5 124.5625 463.5 Z " fill="#000000" transform="translate(267.4375,2.5)"/>
<path d="M0 0 C1.08470078 -0.01591187 2.16940155 -0.03182373 3.28697205 -0.04821777 C4.45369949 -0.04841919 5.62042694 -0.04862061 6.82250977 -0.04882812 C8.02577408 -0.05644165 9.22903839 -0.06405518 10.46876526 -0.07189941 C13.01317266 -0.08270391 15.55762442 -0.08555213 18.10205078 -0.08105469 C21.99595054 -0.08008261 25.88787904 -0.12170006 29.78149414 -0.16601562 C32.25349524 -0.17122268 34.72550319 -0.17391082 37.19750977 -0.17382812 C38.36221298 -0.19022339 39.5269162 -0.20661865 40.72691345 -0.22351074 C48.73919434 -0.15497424 48.73919434 -0.15497424 52.72509766 2.58203125 C56.78691915 8.80840776 56.8734032 14.38830276 56.84204102 21.60351562 C56.84395447 22.57724625 56.84586792 23.55097687 56.84783936 24.55421448 C56.8491965 26.60751607 56.84553304 28.66082637 56.8371582 30.71411133 C56.82646373 33.84345953 56.83706367 36.97223218 56.84985352 40.1015625 C56.84853161 42.1022148 56.84596858 44.10286674 56.84204102 46.10351562 C56.84608948 47.03288437 56.85013794 47.96225311 56.85430908 48.91978455 C56.76622185 61.23011604 56.76622185 61.23011604 52.20141602 65.79492188 C48.42559382 68.13233561 45.31233869 68.54378784 40.91894531 68.58105469 C40.00086594 68.59066223 39.08278656 68.60026978 38.1368866 68.61016846 C36.65869194 68.61654327 36.65869194 68.61654327 35.15063477 68.62304688 C34.12968216 68.62874695 33.10872955 68.63444702 32.05683899 68.64031982 C29.89744093 68.64975991 27.73802853 68.65629986 25.57861328 68.66015625 C22.2866076 68.66985502 18.99522819 68.70088547 15.70336914 68.73242188 C13.60246138 68.73895306 11.50154916 68.74420308 9.40063477 68.74804688 C8.42124435 68.76039368 7.44185394 68.77274048 6.43278503 68.78546143 C0.69538261 68.76689771 -3.35743433 68.17738781 -8.42358398 65.41992188 C-12.05693286 61.66546137 -12.54169907 57.83381617 -12.5847168 52.76245117 C-12.59432434 51.8443718 -12.60393188 50.92629242 -12.61383057 49.98039246 C-12.61808044 48.99492935 -12.62233032 48.00946625 -12.62670898 46.99414062 C-12.63240906 45.97318802 -12.63810913 44.95223541 -12.64398193 43.90034485 C-12.65342202 41.74094679 -12.65996197 39.58153439 -12.66381836 37.42211914 C-12.67351713 34.13011346 -12.70454758 30.83873405 -12.73608398 27.546875 C-12.74261517 25.44596724 -12.74786519 23.34505502 -12.75170898 21.24414062 C-12.76405579 20.26475021 -12.77640259 19.2853598 -12.78912354 18.27629089 C-12.77060167 12.55182186 -12.29823035 8.42458218 -9.42358398 3.41992188 C-6.33044945 0.51417728 -4.19540303 0.03705979 0 0 Z M3.57641602 15.41992188 C3.57641602 27.62992187 3.57641602 39.83992188 3.57641602 52.41992188 C15.78641602 52.41992188 27.99641602 52.41992188 40.57641602 52.41992188 C40.57641602 40.20992188 40.57641602 27.99992187 40.57641602 15.41992188 C28.36641602 15.41992188 16.15641602 15.41992188 3.57641602 15.41992188 Z " fill="#000000" transform="translate(125.423583984375,323.580078125)"/>
<path d="M0 0 C1.59229179 -0.02398109 1.59229179 -0.02398109 3.2167511 -0.04844666 C4.93706795 -0.05649071 4.93706795 -0.05649071 6.69213867 -0.06469727 C7.87225021 -0.07372574 9.05236176 -0.08275421 10.26823425 -0.09205627 C12.76733863 -0.10657533 15.26648117 -0.1154496 17.765625 -0.11914062 C21.58488285 -0.13102502 25.40251938 -0.18018835 29.22143555 -0.23071289 C31.64916203 -0.24017824 34.07689845 -0.24741274 36.50463867 -0.25219727 C37.64544388 -0.27172958 38.78624908 -0.2912619 39.96162415 -0.31138611 C48.8148368 -0.26114502 48.8148368 -0.26114502 52.50341797 2.71630859 C55.60003646 6.21232068 55.92498155 7.76074309 55.95874023 12.31933594 C55.96834778 13.36414627 55.97795532 14.4089566 55.987854 15.48542786 C55.99210388 16.61873032 55.99635376 17.75203278 56.00073242 18.91967773 C56.0064325 20.08137985 56.01213257 21.24308197 56.01800537 22.43998718 C56.02746538 24.90220221 56.03399331 27.36442996 56.0378418 29.82666016 C56.04754052 33.59291721 56.0785525 37.35862714 56.11010742 41.12475586 C56.11663797 43.51472657 56.12188824 45.90470119 56.12573242 48.29467773 C56.13807922 49.4219075 56.15042603 50.54913727 56.16314697 51.71052551 C56.16014587 52.76479233 56.15714478 53.81905914 56.15405273 54.90527344 C56.15952118 56.2918792 56.15952118 56.2918792 56.1651001 57.70649719 C55.71657294 60.8796909 54.68370927 62.73228992 52.79760742 65.30639648 C47.01907174 68.7295711 41.67859878 68.7461526 35.07885742 68.70483398 C34.06214966 68.70770416 33.04544189 68.71057434 31.9979248 68.71353149 C29.85643962 68.71556556 27.71493558 68.71008187 25.57348633 68.69750977 C22.30792434 68.68144723 19.04359996 68.69738136 15.77807617 68.71655273 C13.69083387 68.71457019 11.60359234 68.71072627 9.51635742 68.70483398 C8.54637817 68.71090668 7.57639893 68.71697937 6.57702637 68.72323608 C0.89915938 68.66473798 -3.28586429 68.25958698 -8.20239258 65.30639648 C-13.23634201 60.14158891 -12.78529919 54.57454394 -12.73364258 47.77514648 C-12.73746948 46.66586792 -12.74129639 45.55658936 -12.74523926 44.41369629 C-12.74795528 42.07372121 -12.74061594 39.73371561 -12.72387695 37.39379883 C-12.70246447 33.81840121 -12.72369082 30.24501308 -12.74926758 26.66967773 C-12.74662425 24.39232956 -12.74149917 22.11498264 -12.73364258 19.83764648 C-12.7417395 18.77187378 -12.74983643 17.70610107 -12.75817871 16.60803223 C-12.68179007 10.54209113 -12.31031357 6.89102997 -8.20239258 2.30639648 C-4.90066545 0.10524506 -3.84482532 0.04377336 0 0 Z M3.79760742 15.30639648 C3.79760742 27.51639648 3.79760742 39.72639648 3.79760742 52.30639648 C15.67760742 52.30639648 27.55760742 52.30639648 39.79760742 52.30639648 C39.79760742 40.09639648 39.79760742 27.88639648 39.79760742 15.30639648 C27.91760742 15.30639648 16.03760742 15.30639648 3.79760742 15.30639648 Z " fill="#000000" transform="translate(344.202392578125,323.693603515625)"/>
</svg>
